<?xml version="1.0" encoding="UTF-8"?>
<svg version="1.1" xmlns="http://www.w3.org/2000/svg" width="1201" height="1201">
<path d="M0 0 C396.33 0 792.66 0 1201 0 C1201 396.33 1201 792.66 1201 1201 C804.67 1201 408.34 1201 0 1201 C0 804.67 0 408.34 0 0 Z " fill="#11121D" transform="translate(0,0)"/>
<path d="M0 0 C1.57375609 0.71872057 3.14943662 1.43323564 4.7265625 2.14453125 C23.7186376 10.79242073 40.90325838 21.5407316 57.19628906 34.56347656 C58.8758451 35.90111973 60.57015629 37.21621921 62.2734375 38.5234375 C67.3936281 42.49624646 67.3936281 42.49624646 69 44 C69 44.66 69 45.32 69 46 C69.55469971 46.23017822 70.10939941 46.46035645 70.6809082 46.69750977 C73.64097941 48.35999844 75.70117817 50.44167931 78.10546875 52.83984375 C78.58897293 53.32143448 79.07247711 53.80302521 79.57063293 54.29920959 C80.59422728 55.32144512 81.61530894 56.34620205 82.6340332 57.37329102 C84.15824649 58.90804421 85.69260468 60.43204279 87.22851562 61.95507812 C93.59285873 68.31020222 99.44388025 74.91404745 105 82 C105.75301392 82.94951538 105.75301392 82.94951538 106.52124023 83.91821289 C123.6438748 105.64249517 137.91755779 129.14547848 150 154 C150.91468273 155.79268032 151.83107581 157.58449014 152.75 159.375 C154.679225 163.23985939 156.34373116 167.15758753 157.90625 171.18359375 C158.96563507 173.9115103 160.06120611 176.62330032 161.16259766 179.33447266 C166.12290429 191.59615062 170.36586465 203.91323324 173.80859375 216.68359375 C174.80821349 220.36822924 175.94186901 223.99463228 177.125 227.625 C178.98859133 233.58849225 180.14614561 239.59787376 181.21875 245.73828125 C181.72697478 248.6109424 182.31161206 251.45071883 182.96875 254.29296875 C185.92835375 267.18042864 187.40479065 280.10102881 188.67456055 293.25537109 C188.95858979 295.97731644 188.95858979 295.97731644 189.51855469 298.53735352 C201.5275696 359.96480454 186.80539796 440.56086786 162.97021484 496.71386719 C161.90610197 499.22125344 160.87029691 501.73962068 159.83203125 504.2578125 C148.26508685 531.91967807 133.91833313 557.95932849 116 582 C115.60103516 582.53786133 115.20207031 583.07572266 114.79101562 583.62988281 C86.69428573 621.34103316 51.96184908 653.31391547 10 675 C8.84177734 675.60255615 8.84177734 675.60255615 7.66015625 676.21728516 C-24.33772466 692.66485309 -59.52052787 701.65945361 -95.50415039 701.33618164 C-98.32922591 701.31235896 -101.15336317 701.315687 -103.97851562 701.32226562 C-119.16823251 701.30060383 -133.58751045 699.93843754 -148.375 696.25 C-149.44878906 695.98469482 -150.52257812 695.71938965 -151.62890625 695.44604492 C-193.82304888 684.79983764 -231.59005927 663.36227272 -263.66796875 634.11328125 C-265.75034736 632.22623463 -267.86503064 630.38941767 -270 628.5625 C-277.58659608 621.94147069 -284.49107769 614.6702653 -291 607 C-291.78632813 606.1028125 -292.57265625 605.205625 -293.3828125 604.28125 C-338.00742047 553.03696481 -365.83750709 488.55560413 -377.25 421.9375 C-377.37551239 421.21375183 -377.50102478 420.49000366 -377.63034058 419.74432373 C-381.33029114 398.14442965 -382.33216048 376.67889322 -382.26074219 354.78369141 C-382.24999331 350.87256445 -382.26072161 346.96189467 -382.2734375 343.05078125 C-382.28183206 328.58072648 -381.7691752 314.36398824 -380 300 C-379.85933105 298.79617676 -379.71866211 297.59235352 -379.57373047 296.35205078 C-369.51737542 215.00045712 -335.82378666 132.35110245 -280.2734375 71.4921875 C-278.78706732 69.86279889 -277.31252127 68.22252406 -275.8515625 66.5703125 C-267.50994364 57.14458433 -258.7196972 48.01709718 -249 40 C-248.48630859 39.57251465 -247.97261719 39.1450293 -247.44335938 38.70458984 C-238.35167199 31.16644836 -229.00539365 24.27546775 -219 18 C-218.35901367 17.59571777 -217.71802734 17.19143555 -217.05761719 16.77490234 C-194.46710474 2.66002792 -170.03491031 -8.23839627 -144 -14 C-142.78441406 -14.27585938 -141.56882812 -14.55171875 -140.31640625 -14.8359375 C-93.98323 -25.08708931 -42.92474182 -21.08334449 0 0 Z " fill="#15161F" transform="translate(705,238)"/>
<path d="M0 0 C1.57375609 0.71872057 3.14943662 1.43323564 4.7265625 2.14453125 C23.7186376 10.79242073 40.90325838 21.5407316 57.19628906 34.56347656 C58.8758451 35.90111973 60.57015629 37.21621921 62.2734375 38.5234375 C67.3936281 42.49624646 67.3936281 42.49624646 69 44 C69 44.66 69 45.32 69 46 C69.55469971 46.23017822 70.10939941 46.46035645 70.6809082 46.69750977 C73.64097941 48.35999844 75.70117817 50.44167931 78.10546875 52.83984375 C78.58897293 53.32143448 79.07247711 53.80302521 79.57063293 54.29920959 C80.59422728 55.32144512 81.61530894 56.34620205 82.6340332 57.37329102 C84.15824649 58.90804421 85.69260468 60.43204279 87.22851562 61.95507812 C93.59285873 68.31020222 99.44388025 74.91404745 105 82 C105.75301392 82.94951538 105.75301392 82.94951538 106.52124023 83.91821289 C123.6438748 105.64249517 137.91755779 129.14547848 150 154 C150.91468273 155.79268032 151.83107581 157.58449014 152.75 159.375 C154.679225 163.23985939 156.34373116 167.15758753 157.90625 171.18359375 C158.96563507 173.9115103 160.06120611 176.62330032 161.16259766 179.33447266 C166.12290429 191.59615062 170.36586465 203.91323324 173.80859375 216.68359375 C174.80821349 220.36822924 175.94186901 223.99463228 177.125 227.625 C178.98859133 233.58849225 180.14614561 239.59787376 181.21875 245.73828125 C181.72697478 248.6109424 182.31161206 251.45071883 182.96875 254.29296875 C185.92835375 267.18042864 187.40479065 280.10102881 188.67456055 293.25537109 C188.95858979 295.97731644 188.95858979 295.97731644 189.51855469 298.53735352 C201.5275696 359.96480454 186.80539796 440.56086786 162.97021484 496.71386719 C161.90610197 499.22125344 160.87029691 501.73962068 159.83203125 504.2578125 C148.26508685 531.91967807 133.91833313 557.95932849 116 582 C115.60103516 582.53786133 115.20207031 583.07572266 114.79101562 583.62988281 C86.69428573 621.34103316 51.96184908 653.31391547 10 675 C8.84177734 675.60255615 8.84177734 675.60255615 7.66015625 676.21728516 C-24.33772466 692.66485309 -59.52052787 701.65945361 -95.50415039 701.33618164 C-98.32922591 701.31235896 -101.15336317 701.315687 -103.97851562 701.32226562 C-119.16823251 701.30060383 -133.58751045 699.93843754 -148.375 696.25 C-149.44878906 695.98469482 -150.52257812 695.71938965 -151.62890625 695.44604492 C-193.82304888 684.79983764 -231.59005927 663.36227272 -263.66796875 634.11328125 C-265.75034736 632.22623463 -267.86503064 630.38941767 -270 628.5625 C-277.58659608 621.94147069 -284.49107769 614.6702653 -291 607 C-291.78632813 606.1028125 -292.57265625 605.205625 -293.3828125 604.28125 C-338.00742047 553.03696481 -365.83750709 488.55560413 -377.25 421.9375 C-377.37551239 421.21375183 -377.50102478 420.49000366 -377.63034058 419.74432373 C-381.33029114 398.14442965 -382.33216048 376.67889322 -382.26074219 354.78369141 C-382.24999331 350.87256445 -382.26072161 346.96189467 -382.2734375 343.05078125 C-382.28183206 328.58072648 -381.7691752 314.36398824 -380 300 C-379.85933105 298.79617676 -379.71866211 297.59235352 -379.57373047 296.35205078 C-369.51737542 215.00045712 -335.82378666 132.35110245 -280.2734375 71.4921875 C-278.78706732 69.86279889 -277.31252127 68.22252406 -275.8515625 66.5703125 C-267.50994364 57.14458433 -258.7196972 48.01709718 -249 40 C-248.48630859 39.57251465 -247.97261719 39.1450293 -247.44335938 38.70458984 C-238.35167199 31.16644836 -229.00539365 24.27546775 -219 18 C-218.35901367 17.59571777 -217.71802734 17.19143555 -217.05761719 16.77490234 C-194.46710474 2.66002792 -170.03491031 -8.23839627 -144 -14 C-142.78441406 -14.27585938 -141.56882812 -14.55171875 -140.31640625 -14.8359375 C-93.98323 -25.08708931 -42.92474182 -21.08334449 0 0 Z M-141 25 C-141.70479492 25.21672363 -142.40958984 25.43344727 -143.13574219 25.65673828 C-176.42261308 35.96328583 -204.90435166 53.89725565 -230 78 C-230.50805176 78.4861377 -231.01610352 78.97227539 -231.53955078 79.47314453 C-238.57751607 86.24644175 -244.98519868 93.28652478 -251 101 C-251.77730469 101.97195313 -252.55460937 102.94390625 -253.35546875 103.9453125 C-264.03470058 117.4938451 -273.45522939 132.02115051 -282 147 C-282.35094727 147.61004883 -282.70189453 148.22009766 -283.06347656 148.84863281 C-313.84859405 202.91235968 -329.95092977 268.5381318 -330.203125 330.6484375 C-330.21009399 331.81195236 -330.21706299 332.97546722 -330.22424316 334.17424011 C-330.24153386 337.90786401 -330.24796274 341.64133774 -330.25 345.375 C-330.25100708 346.65011444 -330.25201416 347.92522888 -330.25305176 349.23898315 C-330.24283475 368.3509478 -329.76763486 387.06832434 -327 406 C-326.85014648 407.05687012 -326.70029297 408.11374023 -326.54589844 409.20263672 C-315.70054407 483.91124019 -286.28327392 554.85163263 -234 610 C-233.2884375 610.75410156 -232.576875 611.50820313 -231.84375 612.28515625 C-227.46422436 616.79929846 -222.75113211 620.78489352 -217.84375 624.71484375 C-215.99082215 626.20380363 -214.15622872 627.71596475 -212.34375 629.25390625 C-180.19810053 656.43588926 -139.11684257 671.20137492 -97.1875 671.25 C-96.50424652 671.25133942 -95.82099304 671.25267883 -95.11703491 671.25405884 C-75.94379056 671.24593589 -58.15454139 668.13843747 -40 662 C-39.28030029 661.76216797 -38.56060059 661.52433594 -37.8190918 661.27929688 C0.97777889 648.35140988 36.1487334 620.27711197 61 588 C61.45197754 587.41911621 61.90395508 586.83823242 62.36962891 586.23974609 C78.10313806 565.96742161 90.95760631 544.14179859 102 521 C102.47469727 520.01290039 102.47469727 520.01290039 102.95898438 519.00585938 C147.25611465 426.00884145 151.18740465 310.71572464 115.6875 199.125 C110.90762713 185.72552375 105.32042182 172.74690715 99 160 C98.41653809 158.82244141 98.41653809 158.82244141 97.82128906 157.62109375 C90.38829577 142.7937871 81.8529374 128.35043039 72 115 C71.57638184 114.41541016 71.15276367 113.83082031 70.71630859 113.22851562 C64.68278817 104.90784594 58.45406653 97.02048888 51.39453125 89.546875 C49.44879182 87.47734465 47.61317042 85.3813087 45.8125 83.1875 C43.22610534 80.13218393 40.35423503 77.57801607 37.30078125 74.99609375 C35.63554567 73.55138173 34.01261397 72.05742725 32.41796875 70.53515625 C-3.39783046 36.38520816 -51.58073998 18.09760646 -100.79296875 18.8125 C-114.69415918 19.15431504 -127.68410282 20.83023754 -141 25 Z " fill="#151620" transform="translate(705,238)"/>
<path d="M0 0 C1.89492188 0.01353516 1.89492188 0.01353516 3.828125 0.02734375 C4.79234375 0.03894531 5.7565625 0.05054688 6.75 0.0625 C4.15101635 3.10832646 1.13167174 4.45521735 -2.4375 6.1875 C-10.64874022 10.53570413 -16.52795861 15.7363813 -19.67871094 24.6784668 C-20.8292661 29.47982198 -20.63747324 34.34075197 -20.5625 39.25 C-20.56572266 40.31669922 -20.56894531 41.38339844 -20.57226562 42.48242188 C-20.62929631 51.02614936 -20.62929631 51.02614936 -16.25 58.0625 C-8.13611274 60.71396685 0.42644892 60.9527641 8.88867188 61.58886719 C18.57368581 62.33059752 27.50375085 64.02505638 36.75 67.0625 C37.54196777 67.31773437 38.33393555 67.57296875 39.14990234 67.8359375 C56.69829292 73.70076128 70.0311412 81.95368285 79.75 98.0625 C81.08437434 101.02481104 81.98250336 103.91408312 82.75 107.0625 C83.09546875 108.14144531 83.4409375 109.22039062 83.796875 110.33203125 C86.99946532 122.86675975 84.8495293 135.73538482 78.31640625 146.7734375 C64.40866514 167.09746815 41.78304136 175.13508668 18.57421875 179.546875 C17.64222656 179.71703125 16.71023438 179.8871875 15.75 180.0625 C15.75 180.7225 15.75 181.3825 15.75 182.0625 C17.60320392 183.27156883 17.60320392 183.27156883 20 184.5 C38.84759568 195.53209056 51.5549234 215.15118472 60.85546875 234.3671875 C63.97214722 240.60054443 67.55596886 246.59588993 71.01049805 252.64550781 C73.73485306 257.43464126 76.3943043 262.20319264 78.75 267.1875 C90.72817806 291.7553547 107.12490927 314.87523384 133.8203125 324.21484375 C138.71997479 325.63247937 143.70043751 326.39275 148.75 327.0625 C148.75 327.7225 148.75 328.3825 148.75 329.0625 C129.11782041 335.60655986 100.24091937 329.35429859 82.00512695 320.41357422 C49.67621368 303.62991037 33.76834385 271.93568607 18.5703125 240.3828125 C18.11322906 239.4361673 17.65614563 238.48952209 17.18521118 237.51419067 C14.8865109 232.74847492 12.60424925 227.97597084 10.34814453 223.18994141 C3.4991412 208.80349403 -3.66480257 196.11929829 -17.25 187.0625 C-18.24 187.0625 -19.23 187.0625 -20.25 187.0625 C-20.25808685 187.74915741 -20.26617371 188.43581482 -20.27450562 189.14328003 C-20.35333261 195.7012124 -20.44086511 202.25896876 -20.53752708 208.81666374 C-20.58690014 212.18585654 -20.6322601 215.55498668 -20.671875 218.92431641 C-21.142912 258.50614435 -24.27856408 301.56333256 -52.83984375 331.8046875 C-68.35538774 346.79621165 -87.33155669 352.44628133 -108.25 355.0625 C-108.98178467 355.15893799 -109.71356934 355.25537598 -110.4675293 355.35473633 C-142.32015916 359.28858691 -175.18124496 352.04434057 -201.25 333.0625 C-205.52467773 329.66954121 -209.42051273 325.94492949 -213.25 322.0625 C-213.91386719 321.39734375 -214.57773437 320.7321875 -215.26171875 320.046875 C-231.37453325 302.81159477 -238.25451882 280.33044545 -237.58984375 257.1796875 C-236.62512229 238.60622446 -227.38610126 220.36343267 -213.8125 207.8125 C-206.03741465 201.20041061 -197.55371924 197.18960716 -188.25 193.0625 C-188.25 197.03071534 -189.49272173 197.60374903 -192.25 200.375 C-209.83771078 219.40069971 -214.39658486 244.21029984 -213.42724609 269.28222656 C-213.03892053 275.3734821 -211.84327223 281.17109804 -210.25 287.0625 C-210.04503906 287.93261719 -209.84007812 288.80273438 -209.62890625 289.69921875 C-206.52080736 301.68760017 -199.96172457 312.50227216 -192.25 322.0625 C-191.56164062 322.91585938 -190.87328125 323.76921875 -190.1640625 324.6484375 C-178.36334739 338.49404187 -164.58619828 345.60836342 -147.25 350.0625 C-146.62915527 350.23974609 -146.00831055 350.41699219 -145.36865234 350.59960938 C-133.9509019 353.0941997 -119.12654503 352.09865456 -108.25 348.0625 C-106.75146484 347.53462891 -106.75146484 347.53462891 -105.22265625 346.99609375 C-88.85069731 340.74047766 -77.63660346 329.78323554 -70.25 314.0625 C-66.81432575 305.89707791 -64.77700734 297.53519212 -63.0625 288.875 C-62.90749023 288.09954834 -62.75248047 287.32409668 -62.59277344 286.52514648 C-58.68984521 265.252487 -58.99246381 243.89570764 -59.08014369 222.36530685 C-59.09659785 217.71693808 -59.10050836 213.06855868 -59.10560608 208.42016602 C-59.11691603 199.62605532 -59.13758614 190.83199698 -59.16250378 182.03791523 C-59.2069932 166.31411998 -59.24022558 150.59030749 -59.26274782 134.86646557 C-59.27105521 129.36857925 -59.28509526 123.87074661 -59.30361396 118.3728857 C-59.31711926 114.12229306 -59.3259965 109.87170356 -59.33178711 105.62109375 C-59.33350963 104.42603179 -59.33350963 104.42603179 -59.33526695 103.20682716 C-59.34207857 93.25202813 -59.21862082 83.3240494 -58.51645565 73.38926697 C-58.14858273 69.60749011 -58.14858273 69.60749011 -59.25 66.0625 C-65.19 66.0625 -71.13 66.0625 -77.25 66.0625 C-77.26213028 69.57518272 -77.26213028 69.57518272 -77.27450562 73.15882874 C-77.35187861 95.29951348 -77.43990055 117.44013801 -77.53752708 139.58074284 C-77.58745803 150.96161138 -77.63390163 162.34247342 -77.671875 173.72338867 C-77.70501629 183.65335353 -77.74496613 193.5832648 -77.79279006 203.51317018 C-77.81783723 208.76153978 -77.83968022 214.00987483 -77.85334396 219.25828743 C-78.0760131 301.50699811 -78.0760131 301.50699811 -98.296875 322.15234375 C-102.54643174 326.05842128 -106.12234685 328.92349319 -112.0625 329.1875 C-112.784375 329.14625 -113.50625 329.105 -114.25 329.0625 C-115.16514258 326.31707225 -115.37561778 324.71729686 -115.37749195 321.89224052 C-115.3804996 321.03838575 -115.38350725 320.18453098 -115.38660604 319.30480182 C-115.38485567 318.36639709 -115.38310529 317.42799236 -115.38130188 316.46115112 C-115.38447545 314.96612586 -115.38447545 314.96612586 -115.38771313 313.44089806 C-115.39372706 310.08542504 -115.39271198 306.72998949 -115.3918457 303.37451172 C-115.39487632 300.97490881 -115.3983975 298.57530648 -115.40237427 296.17570496 C-115.41027184 290.99960206 -115.41543199 285.82350362 -115.41866493 280.64739609 C-115.42416287 272.46185992 -115.44106252 264.2763654 -115.46000671 256.09085083 C-115.46636367 253.28986175 -115.4726721 250.48887256 -115.47898388 247.68788338 C-115.48056764 246.98784137 -115.4821514 246.28779936 -115.48378316 245.56654396 C-115.50172308 237.59612345 -115.51794696 229.62569999 -115.53295898 221.65527344 C-115.53433486 220.92663012 -115.53571073 220.1979868 -115.53712829 219.44726337 C-115.55904145 207.64889215 -115.5698103 195.85053165 -115.57732973 184.05214368 C-115.58540826 171.93483421 -115.60872371 159.81761652 -115.6452834 147.70035946 C-115.66728045 140.2292885 -115.67698165 132.75840641 -115.67078307 125.28730471 C-115.66722541 119.55609453 -115.68451088 113.82509265 -115.70946121 108.09394264 C-115.71637698 105.7466221 -115.71649545 103.39927004 -115.70926094 101.05195045 C-115.70037057 97.84285481 -115.71607074 94.63476486 -115.73774719 91.42575073 C-115.72930466 90.50073033 -115.72086212 89.57570993 -115.71216375 88.62265861 C-115.80180497 81.42628281 -117.44181649 75.16765283 -122.35546875 69.734375 C-126.55959996 67.30607789 -130.96281432 65.82730815 -135.5625 64.3125 C-136.95952148 63.83876953 -136.95952148 63.83876953 -138.38476562 63.35546875 C-140.67025233 62.5819194 -142.95848118 61.81795276 -145.25 61.0625 C-145.25 60.7325 -145.25 60.4025 -145.25 60.0625 C-137.34206951 58.9131668 -129.50001262 58.95932993 -121.53099632 59.01790047 C-119.06340819 59.03545548 -116.59588617 59.04564006 -114.12825012 59.05381775 C-107.11904677 59.07813951 -100.1099339 59.11400461 -93.10083008 59.15844727 C-88.7981302 59.18522027 -84.49548035 59.20226506 -80.19271278 59.21331596 C-78.55763191 59.21951849 -76.92256081 59.22951474 -75.28752708 59.24339485 C-73.00696783 59.26260329 -70.72667414 59.26950507 -68.44604492 59.27368164 C-67.14970627 59.28113907 -65.85336761 59.2885965 -64.51774597 59.29627991 C-61.44264837 59.07628238 -59.74961107 58.81533403 -57.25 57.0625 C-55.46222309 53.39285267 -55.22707494 50.18043167 -55.125 46.1875 C-54.09357799 33.35591089 -45.57375108 21.38486127 -36.25 13.0625 C-28.53542426 6.80829662 -20.85198279 3.42298744 -11.25 1.0625 C-10.29867187 0.76859375 -10.29867187 0.76859375 -9.328125 0.46875 C-6.2124612 -0.14032713 -3.16904278 -0.02934299 0 0 Z " fill="#DFC25A" transform="translate(642.25,422.9375)"/>
<path d="M0 0 C1.57375609 0.71872057 3.14943662 1.43323564 4.7265625 2.14453125 C23.7186376 10.79242073 40.90325838 21.5407316 57.19628906 34.56347656 C58.8758451 35.90111973 60.57015629 37.21621921 62.2734375 38.5234375 C67.3936281 42.49624646 67.3936281 42.49624646 69 44 C69 44.66 69 45.32 69 46 C69.55469971 46.23017822 70.10939941 46.46035645 70.6809082 46.69750977 C73.64097941 48.35999844 75.70117817 50.44167931 78.10546875 52.83984375 C78.58897293 53.32143448 79.07247711 53.80302521 79.57063293 54.29920959 C80.59422728 55.32144512 81.61530894 56.34620205 82.6340332 57.37329102 C84.15824649 58.90804421 85.69260468 60.43204279 87.22851562 61.95507812 C93.59285873 68.31020222 99.44388025 74.91404745 105 82 C105.75301392 82.94951538 105.75301392 82.94951538 106.52124023 83.91821289 C123.6438748 105.64249517 137.91755779 129.14547848 150 154 C150.91468273 155.79268032 151.83107581 157.58449014 152.75 159.375 C154.679225 163.23985939 156.34373116 167.15758753 157.90625 171.18359375 C158.96563507 173.9115103 160.06120611 176.62330032 161.16259766 179.33447266 C166.12290429 191.59615062 170.36586465 203.91323324 173.80859375 216.68359375 C174.80821349 220.36822924 175.94186901 223.99463228 177.125 227.625 C178.98859133 233.58849225 180.14614561 239.59787376 181.21875 245.73828125 C181.72697478 248.6109424 182.31161206 251.45071883 182.96875 254.29296875 C185.92835375 267.18042864 187.40479065 280.10102881 188.67456055 293.25537109 C188.95858979 295.97731644 188.95858979 295.97731644 189.51855469 298.53735352 C201.5275696 359.96480454 186.80539796 440.56086786 162.97021484 496.71386719 C161.90610197 499.22125344 160.87029691 501.73962068 159.83203125 504.2578125 C148.26508685 531.91967807 133.91833313 557.95932849 116 582 C115.60103516 582.53786133 115.20207031 583.07572266 114.79101562 583.62988281 C86.69428573 621.34103316 51.96184908 653.31391547 10 675 C8.84177734 675.60255615 8.84177734 675.60255615 7.66015625 676.21728516 C-24.33772466 692.66485309 -59.52052787 701.65945361 -95.50415039 701.33618164 C-98.32922591 701.31235896 -101.15336317 701.315687 -103.97851562 701.32226562 C-119.16823251 701.30060383 -133.58751045 699.93843754 -148.375 696.25 C-149.44878906 695.98469482 -150.52257812 695.71938965 -151.62890625 695.44604492 C-193.82304888 684.79983764 -231.59005927 663.36227272 -263.66796875 634.11328125 C-265.75034736 632.22623463 -267.86503064 630.38941767 -270 628.5625 C-277.58659608 621.94147069 -284.49107769 614.6702653 -291 607 C-291.78632813 606.1028125 -292.57265625 605.205625 -293.3828125 604.28125 C-338.00742047 553.03696481 -365.83750709 488.55560413 -377.25 421.9375 C-377.37551239 421.21375183 -377.50102478 420.49000366 -377.63034058 419.74432373 C-381.33029114 398.14442965 -382.33216048 376.67889322 -382.26074219 354.78369141 C-382.24999331 350.87256445 -382.26072161 346.96189467 -382.2734375 343.05078125 C-382.28183206 328.58072648 -381.7691752 314.36398824 -380 300 C-379.85933105 298.79617676 -379.71866211 297.59235352 -379.57373047 296.35205078 C-369.51737542 215.00045712 -335.82378666 132.35110245 -280.2734375 71.4921875 C-278.78706732 69.86279889 -277.31252127 68.22252406 -275.8515625 66.5703125 C-267.50994364 57.14458433 -258.7196972 48.01709718 -249 40 C-248.48630859 39.57251465 -247.97261719 39.1450293 -247.44335938 38.70458984 C-238.35167199 31.16644836 -229.00539365 24.27546775 -219 18 C-218.35901367 17.59571777 -217.71802734 17.19143555 -217.05761719 16.77490234 C-194.46710474 2.66002792 -170.03491031 -8.23839627 -144 -14 C-142.78441406 -14.27585938 -141.56882812 -14.55171875 -140.31640625 -14.8359375 C-93.98323 -25.08708931 -42.92474182 -21.08334449 0 0 Z M-129 -7 C-129.84498047 -6.89236328 -130.68996094 -6.78472656 -131.56054688 -6.67382812 C-178.18517939 -0.4266215 -220.11458838 23.73262359 -254.14453125 55.3671875 C-256.66303899 57.68931365 -259.22307741 59.94538536 -261.8125 62.1875 C-265.23653008 65.21810472 -268.26372324 68.41009672 -271.2109375 71.90234375 C-273.12146138 74.14241214 -275.11935224 76.28234032 -277.125 78.4375 C-292.54941953 95.56990466 -304.75360872 114.9694192 -316 135 C-316.36335449 135.63873047 -316.72670898 136.27746094 -317.10107422 136.93554688 C-347.63118393 190.77610417 -361.99695639 256.36512388 -362.203125 317.98046875 C-362.20595238 318.65774836 -362.20877975 319.33502796 -362.21169281 320.03283119 C-362.22651814 323.62597638 -362.23584886 327.21908324 -362.24023438 330.81225586 C-362.24458711 333.70594104 -362.25837832 336.59932269 -362.28125 339.49291992 C-362.43371986 359.21319509 -361.52827898 378.40603507 -359 398 C-358.83576538 399.301082 -358.83576538 399.301082 -358.66821289 400.62844849 C-358.05742765 405.40983626 -357.36762853 410.17450863 -356.625 414.9375 C-356.5198407 415.61958527 -356.4146814 416.30167053 -356.30633545 417.00442505 C-354.42526746 429.14463992 -352.0586645 441.09932193 -349 453 C-348.74492676 454.00514648 -348.48985352 455.01029297 -348.22705078 456.04589844 C-336.47904926 502.01267545 -319.6569829 548.01365061 -292 587 C-291.22586976 588.12191815 -290.45247278 589.2443425 -289.6796875 590.3671875 C-283.91528194 598.66779447 -277.64374173 606.39101604 -271 614 C-270.04287109 615.10794922 -270.04287109 615.10794922 -269.06640625 616.23828125 C-267.39002323 618.17018686 -265.69672046 620.0859468 -264 622 C-262.93845703 623.21816406 -262.93845703 623.21816406 -261.85546875 624.4609375 C-257.8382366 629.01881929 -253.78249821 633.26457504 -249.1328125 637.17578125 C-246.68139797 639.27250393 -244.3517558 641.47965762 -242 643.6875 C-225.41759291 658.74167976 -206.31208288 670.65625187 -186 680 C-185.27232422 680.33628418 -184.54464844 680.67256836 -183.79492188 681.01904297 C-144.68548258 698.85623154 -101.23868068 703.47834858 -59 696 C-58.13858398 695.84966309 -57.27716797 695.69932617 -56.38964844 695.54443359 C-21.23677405 689.07173416 11.42234031 671.28971038 39 649 C39.52851562 648.57589844 40.05703125 648.15179687 40.6015625 647.71484375 C55.71085588 635.48872471 70.33001206 621.57477478 82 606 C82.93396196 604.79354731 83.86893754 603.58787891 84.8046875 602.3828125 C123.81979412 551.7246842 147.17378877 490.39082437 158.47705078 427.81884766 C158.90755213 425.49832078 159.36999733 423.19270665 159.87109375 420.88671875 C164.89950147 397.04737643 165.5318123 372.37997143 165.38611603 348.11091995 C165.37478071 346.02208964 165.3691904 343.93330789 165.3649292 341.8444519 C165.31838059 322.7618063 164.91080385 303.84805547 162.38476562 284.90576172 C162.01019838 282.07701845 161.69022817 279.24772434 161.390625 276.41015625 C160.96922968 269.49712551 160.96922968 269.49712551 159 263 C158.53402372 260.14775028 158.10229997 257.29718635 157.6875 254.4375 C155.49660268 240.10397039 151.98316458 226.47075086 147.5 212.69140625 C146.30140203 208.99294057 145.20668873 205.27591804 144.15405273 201.53369141 C127.18126928 141.38993626 88.58152875 80.61772591 39 42 C37.59621094 40.85337891 37.59621094 40.85337891 36.1640625 39.68359375 C26.37680154 31.84623697 15.79474851 25.35289027 5 19 C3.90147705 18.351521 3.90147705 18.351521 2.78076172 17.68994141 C-37.02188779 -5.46163516 -83.75138332 -13.02167903 -129 -7 Z " fill="#C8A141" transform="translate(705,238)"/>
<path d="M0 0 C0.95277832 0.465271 0.95277832 0.465271 1.92480469 0.93994141 C19.9097456 9.77358381 36.19512387 21.48493129 50.80419922 35.14477539 C53.03119852 37.22505206 55.27134705 39.21516506 57.66015625 41.109375 C59.75454905 42.80167236 61.40276318 44.44413615 63.125 46.5 C66.04833123 49.93475634 69.09087801 53.22069959 72.1875 56.5 C118.66232729 106.66164819 144.3206668 179.07200099 153 246 C153.14808105 247.10214844 153.29616211 248.20429687 153.44873047 249.33984375 C155.91751196 268.57986316 156.28841881 287.74403729 156.3125 307.125 C156.31608521 308.28597198 156.31967041 309.44694397 156.32336426 310.64309692 C156.34920955 326.19742894 155.67872614 341.53493659 154 357 C153.8867186 358.05540985 153.8867186 358.05540985 153.77114868 359.13214111 C147.93763019 412.31573409 131.623059 464.57095611 105 511 C104.5992627 511.70592285 104.19852539 512.4118457 103.78564453 513.13916016 C92.00283311 533.80636475 77.49762126 552.88583731 61 570 C60.46584473 570.55606934 59.93168945 571.11213867 59.38134766 571.68505859 C52.32168293 578.99647956 45.08508144 585.81221767 37 592 C36.44086914 592.43022461 35.88173828 592.86044922 35.30566406 593.30371094 C17.48854829 606.93995 -1.63303925 617.98518647 -23 625 C-24.21236328 625.42732422 -24.21236328 625.42732422 -25.44921875 625.86328125 C-53.68091843 635.7469104 -85.80994991 637.28540437 -115 631 C-115.83563477 630.82307617 -116.67126953 630.64615234 -117.53222656 630.46386719 C-151.47168895 623.08461495 -181.69756708 605.56059877 -207 582 C-208.32937633 580.84957817 -209.66257608 579.70355612 -211 578.5625 C-219.54585957 571.08272352 -226.94983569 562.88372352 -234 554 C-234.62132812 553.2575 -235.24265625 552.515 -235.8828125 551.75 C-246.54747757 538.89885549 -255.88440964 524.58391096 -264 510 C-264.75917725 508.64116699 -264.75917725 508.64116699 -265.53369141 507.25488281 C-275.741756 488.78087739 -283.70300895 469.77566562 -291 450 C-291.33999023 449.08927734 -291.67998047 448.17855469 -292.03027344 447.24023438 C-299.58891298 426.78344388 -304.24619619 405.16255488 -307.58691406 383.65234375 C-307.98785676 381.07796935 -308.40988948 378.50782267 -308.8359375 375.9375 C-312.39274533 354.00975322 -313.37811897 332.19266762 -313.3125 310 C-313.31100952 308.74919647 -313.30951904 307.49839294 -313.3079834 306.20968628 C-313.26747153 287.27205188 -312.63422549 268.76601799 -310 250 C-309.71870908 247.79818231 -309.43745909 245.59635939 -309.15625 243.39453125 C-306.94498505 226.98616261 -303.23604108 210.99357391 -299 195 C-298.70641602 193.88012695 -298.41283203 192.76025391 -298.11035156 191.60644531 C-289.93389579 160.91537321 -277.54637079 130.16484871 -261 103 C-260.56316895 102.27844727 -260.12633789 101.55689453 -259.67626953 100.81347656 C-252.7226319 89.38879078 -245.26683185 78.51280265 -237 68 C-236.21882813 67.00484375 -235.43765625 66.0096875 -234.6328125 64.984375 C-229.05982986 58.04293755 -223.12110874 51.45702324 -217 45 C-216.52691406 44.49823242 -216.05382812 43.99646484 -215.56640625 43.47949219 C-207.97423052 35.48096017 -199.82402536 28.5996793 -191 22 C-190.05125 21.27941406 -189.1025 20.55882812 -188.125 19.81640625 C-133.51930731 -20.89975705 -61.80619661 -30.93335097 0 0 Z M-112 -11 C-112.72767578 -10.83951172 -113.45535156 -10.67902344 -114.20507812 -10.51367188 C-121.65897084 -8.83900875 -128.92820767 -6.9262589 -136 -4 C-136.70382812 -3.73832031 -137.40765625 -3.47664063 -138.1328125 -3.20703125 C-146.38250239 -0.08957418 -154.19444142 3.91904623 -162 8 C-162.61456055 8.31984863 -163.22912109 8.63969727 -163.86230469 8.96923828 C-173.45772883 14.02401748 -181.69422496 20.0893902 -190 27 C-190.56686523 27.46390137 -191.13373047 27.92780273 -191.71777344 28.40576172 C-220.07864193 51.64614255 -241.86086248 79.95360844 -259.75097656 111.78076172 C-260.5232039 113.15283884 -261.30023661 114.52223875 -262.08496094 115.88720703 C-269.25759523 128.36759069 -274.60661147 141.67864821 -280 155 C-280.50877686 156.24475098 -280.50877686 156.24475098 -281.02783203 157.51464844 C-291.33270408 182.99318297 -297.3842395 209.98881946 -302 237 C-302.16725586 237.9688916 -302.33451172 238.9377832 -302.50683594 239.93603516 C-306.37566093 262.74546253 -307.41038604 285.45023593 -307.375 308.5625 C-307.37476082 309.22947781 -307.37452164 309.89645561 -307.37427521 310.58364487 C-307.36416247 332.93601245 -306.50731129 354.89931781 -303 377 C-302.84371124 378.01441162 -302.84371124 378.01441162 -302.68426514 379.04931641 C-293.16458513 440.80373496 -269.9201133 502.41858969 -230 551 C-229.56864746 551.53141602 -229.13729492 552.06283203 -228.69287109 552.61035156 C-216.41569482 567.66883606 -202.79143132 581.62982437 -187 593 C-186.37270996 593.45568359 -185.74541992 593.91136719 -185.09912109 594.38085938 C-165.11393169 608.80162307 -143.85480385 619.61467053 -120 626 C-119.21044922 626.21317871 -118.42089844 626.42635742 -117.60742188 626.64599609 C-86.25330443 634.67555379 -50.96257046 631.60268837 -21 620 C-19.76515869 619.52651123 -19.76515869 619.52651123 -18.50537109 619.04345703 C7.04580142 609.08626299 29.38089023 594.10530406 49 575 C49.94987793 574.08081787 49.94987793 574.08081787 50.91894531 573.14306641 C59.13615572 565.16180343 67.07733516 557.15278506 74 548 C74.51240234 547.33162109 75.02480469 546.66324219 75.55273438 545.97460938 C84.14104275 534.74223799 91.92878478 523.24145382 99 511 C99.44408203 510.24203125 99.88816406 509.4840625 100.34570312 508.703125 C132.40874411 453.71154967 149.95566912 386.46712151 150.203125 322.87890625 C150.21009399 321.66817444 150.21706299 320.45744263 150.22424316 319.21002197 C150.24153236 315.32747886 150.24796204 311.44508 150.25 307.5625 C150.25058914 306.90195492 150.25117828 306.24140984 150.25178528 305.56084824 C150.26419519 285.85843812 149.97932296 266.51047121 147 247 C146.85014648 245.96697754 146.70029297 244.93395508 146.54589844 243.86962891 C145.51944786 236.88170155 144.31079026 229.93968477 143 223 C142.82243164 222.03465332 142.64486328 221.06930664 142.46191406 220.07470703 C133.52536093 172.02281304 115.32668147 124.04144465 87 84 C86.30132813 83.00742187 85.60265625 82.01484375 84.8828125 80.9921875 C78.45935045 72.01933584 71.59365367 63.52557937 64.15625 55.375 C62.2143852 53.23613442 60.32022404 51.06580615 58.4375 48.875 C51.60324868 41.0711295 44.12498355 34.43765231 36 28 C34.56914063 26.82630859 34.56914063 26.82630859 33.109375 25.62890625 C20.76694851 15.73914144 7.12520939 7.76031888 -7.125 0.9375 C-7.86959473 0.57970459 -8.61418945 0.22190918 -9.38134766 -0.14672852 C-14.0237045 -2.29600615 -18.67275658 -3.88154668 -23.59106445 -5.27954102 C-25.79566064 -5.93888665 -27.89818867 -6.70528756 -30.03515625 -7.5546875 C-34.40709904 -9.23763863 -38.85377049 -10.20011511 -43.4375 -11.125 C-44.23220703 -11.29386719 -45.02691406 -11.46273438 -45.84570312 -11.63671875 C-56.2021868 -13.77711489 -66.30503307 -14.2392093 -76.875 -14.25 C-77.56119415 -14.25100708 -78.24738831 -14.25201416 -78.95437622 -14.25305176 C-90.2044987 -14.24191675 -101.00451999 -13.47886874 -112 -11 Z " fill="#9F9E98" transform="translate(688,275)"/>
<path d="M0 0 C18.05751847 1.22160334 34.35487321 8.34770657 46.7109375 21.67578125 C57.15895099 33.95444495 59.40383701 47.5845048 58.48828125 63.15234375 C56.58033387 75.94205885 48.4515338 87.65029186 38.47265625 95.53515625 C31.90962814 100.3487663 25.07656662 104.1799739 17.48828125 107.15234375 C16.74191406 107.47074219 15.99554687 107.78914062 15.2265625 108.1171875 C9.01437652 110.53737486 3.08912648 110.45390521 -3.51171875 110.15234375 C-4.6734294 107.82892245 -4.63985371 106.48805266 -4.64543152 103.90112305 C-4.6496965 103.00936371 -4.65396149 102.11760437 -4.65835571 101.19882202 C-4.65790253 100.21797638 -4.65744934 99.23713074 -4.65698242 98.2265625 C-4.66034103 97.19560455 -4.66369965 96.16464661 -4.66716003 95.10244751 C-4.67668886 91.68156747 -4.67861401 88.26073625 -4.6796875 84.83984375 C-4.68289835 82.47094706 -4.68626228 80.10205056 -4.68977356 77.7331543 C-4.6957694 72.76317891 -4.69761295 67.79322093 -4.69702148 62.82324219 C-4.69691975 56.44046022 -4.71058191 50.05778921 -4.72779369 43.67503357 C-4.73888582 38.78185509 -4.74094157 33.88870369 -4.74041176 28.99551392 C-4.74159571 26.64148577 -4.74604053 24.287457 -4.75374413 21.93344116 C-4.76348941 18.64825554 -4.76068783 15.36331416 -4.75463867 12.078125 C-4.76025818 11.09727936 -4.76587769 10.11643372 -4.77166748 9.10586548 C-4.76747299 8.21410614 -4.7632785 7.3223468 -4.75895691 6.40356445 C-4.75950168 5.62632523 -4.76004644 4.849086 -4.76060772 4.04829407 C-4.34250837 0.86335743 -3.0848368 0.18710519 0 0 Z " fill="#171821" transform="translate(625.51171875,488.84765625)"/>
<path d="M0 0 C3.6875 0.5 3.6875 0.5 6.5625 3.0625 C8.95337838 6.39714616 9.53790466 9.38612816 9.6875 13.5 C9.44386719 14.22960937 9.20023438 14.95921875 8.94921875 15.7109375 C8.54521539 20.01628671 10.54982416 22.87841529 12.625 26.5625 C13.03741943 27.31402344 13.44983887 28.06554687 13.87475586 28.83984375 C22.43434676 45.3903394 22.43434676 45.3903394 35.6875 57.5 C37.68710012 57.539992 39.68797242 57.54346799 41.6875 57.5 C45.6010304 49.6729392 41.07860534 38.3669814 38.6875 30.5 C37.30473987 26.9428624 35.91289028 23.65366012 33.0859375 20.9921875 C31.6875 19.5 31.6875 19.5 31.375 16.4375 C31.6875 13.5 31.6875 13.5 33.6875 11.5 C36.1875 11.6875 36.1875 11.6875 38.6875 12.5 C40.79655908 15.66358863 40.82478779 16.09840307 40.8125 19.625 C41.24846245 25.00715457 43.11524356 29.35474318 45.375 34.1875 C45.70193848 34.89986816 46.02887695 35.61223633 46.36572266 36.34619141 C49.33899223 42.47047264 52.97415703 47.69110469 58.6875 51.5 C62.23328685 51.66025399 62.23328685 51.66025399 65.6875 50.5 C69.33276262 45.30571123 69.17202 40.16227649 69.125 34.0625 C69.14498047 33.14662109 69.16496094 32.23074219 69.18554688 31.28710938 C69.18109883 25.09098936 68.09696296 21.65089121 64.6875 16.5 C64.3125 13.6875 64.3125 13.6875 64.6875 11.5 C65.3475 10.84 66.0075 10.18 66.6875 9.5 C69.39628174 9.70836783 71.23195187 10.22667112 73.5625 11.625 C75.35872283 14.61870471 74.2850127 17.13220115 73.6875 20.5 C73.30584713 25.64227025 73.79615815 30.43009813 74.6875 35.5 C75.55445349 40.83364867 75.96910838 46.04413366 76.0625 51.4375 C76.08828125 52.14712891 76.1140625 52.85675781 76.140625 53.58789062 C76.16004154 58.71871052 74.87614724 61.54066496 71.6875 65.5 C64.45423689 72.33141516 55.86793475 74.39534351 46.4375 76.4375 C29.06833316 80.4240513 12.68483812 86.9739437 0.0625 100.203125 C-1.3125 101.5 -1.3125 101.5 -3.3125 101.5 C-3.57160156 102.06589844 -3.83070313 102.63179688 -4.09765625 103.21484375 C-5.433218 105.72707405 -6.99132623 107.82728237 -8.75 110.0625 C-9.34683594 110.82691406 -9.94367187 111.59132813 -10.55859375 112.37890625 C-12.06449638 114.2000758 -13.60714292 115.86765515 -15.3125 117.5 C-14.03232978 112.09483684 -11.20249877 108.26563392 -7.96875 103.8671875 C-6.51811856 101.79387936 -5.36896698 99.79253335 -4.3125 97.5 C-5.09753906 96.7265625 -5.88257813 95.953125 -6.69140625 95.15625 C-16.24056588 85.70446867 -16.24056588 85.70446867 -20.0625 81.25 C-27.66652462 72.02007478 -27.66652462 72.02007478 -38.3125 67.5 C-40.3125 65.5 -40.3125 65.5 -40.5 61.9375 C-40.3125 58.5 -40.3125 58.5 -39.3125 57.5 C-36.62698542 57.21731425 -34.94498789 57.10176688 -32.625 58.5625 C-31.3125 60.5 -31.3125 60.5 -30.58203125 63.796875 C-28.05698433 71.16224263 -19.64301129 76.47335529 -12.9375 80.125 C-9.37557243 81.47607598 -7.0718558 82.03705083 -3.3125 81.5 C-0.97070867 79.15820867 -1.01703674 78.68019135 -1 75.5 C-1.29434343 65.21433232 -5.84193846 55.08543229 -11.3125 46.5 C-13.84869369 44.64399396 -13.84869369 44.64399396 -16.3125 43.5 C-17.3125 42.5 -17.3125 42.5 -17.375 38.9375 C-17.354375 37.803125 -17.33375 36.66875 -17.3125 35.5 C-15.0625 34.75 -15.0625 34.75 -12.3125 34.5 C-10.125 35.9375 -10.125 35.9375 -8.3125 38.5 C-8.10625 39.634375 -7.9 40.76875 -7.6875 41.9375 C-5.84423081 50.80511937 3.76984189 60.90736596 10.6875 66.5 C13.59217561 68.22306667 13.59217561 68.22306667 16.875 68.25 C18.88565586 67.64991567 18.88565586 67.64991567 19.6875 65.5 C20.08556532 54.68300768 16.70734172 45.32580611 12.6875 35.5 C12.37329102 34.71850586 12.05908203 33.93701172 11.73535156 33.13183594 C10.77343743 30.78038352 9.77106845 28.45130806 8.75 26.125 C8.45085693 25.40538086 8.15171387 24.68576172 7.84350586 23.94433594 C6.14143696 20.24190199 4.89709095 18.24571288 1.0546875 16.66015625 C-0.05648437 16.27730469 -1.16765625 15.89445312 -2.3125 15.5 C-4.94033326 12.53309148 -5.49927267 10.16813801 -5.625 6.3125 C-5.22797965 1.46885173 -4.79831878 0.72427453 0 0 Z " fill="#D0AD48" transform="translate(582.3125,340.5)"/>
<path d="M0 0 C2.9375 0.25 2.9375 0.25 6 1 C8 4 8 4 8.5 7.375 C10.5559551 16.27317366 19.23630287 24.73810975 25.8203125 30.73046875 C27 32 27 32 27 34 C25.3203125 35.25390625 25.3203125 35.25390625 23.125 36.5625 C22.40570312 36.99691406 21.68640625 37.43132812 20.9453125 37.87890625 C19.65165204 38.62444953 18.33548258 39.33225871 17 40 C16.8040625 39.40316406 16.608125 38.80632812 16.40625 38.19140625 C14.26748317 31.98713867 11.76979763 25.97373874 9.0625 20 C8.73894531 19.2582251 8.41539062 18.5164502 8.08203125 17.75219727 C6.06566195 13.39489922 4.53182146 11.0857114 0 9 C-1 8 -1 8 -1.125 4.5 C-1 1 -1 1 0 0 Z " fill="#EBD66E" transform="translate(566,375)"/>
<path d="M0 0 C2.5 0.1875 2.5 0.1875 5 1 C7.10905908 4.16358863 7.13728779 4.59840307 7.125 8.125 C7.8770821 17.91653041 13.87489298 27.79660544 19 36 C18.071875 36.45375 17.14375 36.9075 16.1875 37.375 C12.96078611 38.9421633 12.96078611 38.9421633 10 41 C9.91363281 40.30777344 9.82726562 39.61554688 9.73828125 38.90234375 C8.86253562 32.80426179 7.56415638 26.98270806 5.6875 21.125 C5.29949219 19.91070312 4.91148437 18.69640625 4.51171875 17.4453125 C3.25248318 14.57542678 2.34266483 13.03692102 0.359375 10.7578125 C-2 8 -2 8 -2.4375 4.75 C-2 2 -2 2 0 0 Z " fill="#E8D56F" transform="translate(616,352)"/>
<path d="M0 0 C-2.85306797 2.32472205 -5.54074837 3.7508258 -9 5 C-9 4.34 -9 3.68 -9 3 C-9.94875 3.495 -10.8975 3.99 -11.875 4.5 C-15 6 -15 6 -17 6 C-17 6.66 -17 7.32 -17 8 C-18.01578125 8.35191406 -19.0315625 8.70382812 -20.078125 9.06640625 C-28.11980309 11.92702025 -35.27666911 14.99267486 -42.44921875 19.6796875 C-45.23295415 21.12057963 -46.91272103 21.27813324 -50 21 C-40.27582454 7.67256712 -21.60733694 3.26818429 -6.41796875 -0.65234375 C-3.92737469 -1.01044209 -2.36420749 -0.79909111 0 0 Z " fill="#EDD660" transform="translate(639,410)"/>
<path d="M0 0 C0 0.66 0 1.32 0 2 C-25.88107052 9.48332668 -50.23191144 10.41601795 -77 10 C-77 9.34 -77 8.68 -77 8 C-75.8253418 7.97812622 -75.8253418 7.97812622 -74.62695312 7.95581055 C-52.17320551 7.49212034 -30.24682689 6.28196889 -8.41967773 0.53808594 C-7.60313721 0.32442383 -6.78659668 0.11076172 -5.9453125 -0.109375 C-5.22875488 -0.30499023 -4.51219727 -0.50060547 -3.77392578 -0.70214844 C-2 -1 -2 -1 0 0 Z " fill="#E7D15F" transform="translate(669,929)"/>
<path d="M0 0 C3.6875 0.5 3.6875 0.5 6.625 3.125 C8.84145971 6.75193408 9.60851025 8.35545387 8.6875 12.5 C6.01203415 14.86070516 4.07387089 15.43818066 0.5625 16 C-2.3125 15.5 -2.3125 15.5 -4.1875 13.5 C-5.68347163 9.51074233 -5.66110961 6.7530372 -5.3125 2.5 C-3.3125 0.5 -3.3125 0.5 0 0 Z " fill="#F2E07F" transform="translate(582.3125,340.5)"/>
<path d="M0 0 C2.70878174 0.20836783 4.54445187 0.72667112 6.875 2.125 C8.36569763 4.60949605 7.70056762 6.14186149 7.24902344 8.89599609 C6.9755024 11.20698068 6.9803739 13.40855574 7.04296875 15.734375 C7.06423828 16.55550781 7.08550781 17.37664062 7.10742188 18.22265625 C7.16131479 19.9235693 7.22663135 21.62415464 7.30273438 23.32421875 C7.35159262 25.61512741 7.37062339 27.73821747 7 30 C4.98828125 32.078125 4.98828125 32.078125 3 33 C2.96132813 31.06447266 2.96132813 31.06447266 2.921875 29.08984375 C2.86556417 27.37236339 2.80821752 25.65491678 2.75 23.9375 C2.73582031 23.08994141 2.72164062 22.24238281 2.70703125 21.36914062 C2.47681594 15.40656417 1.23355983 11.99731974 -2 7 C-2.375 4.1875 -2.375 4.1875 -2 2 C-1.34 1.34 -0.68 0.68 0 0 Z " fill="#CCB85C" transform="translate(649,350)"/>
<path d="M0 0 C0.33 0 0.66 0 1 0 C1.35480978 4.98704856 1.58540154 8.82919691 -0.6875 13.375 C-7.6555786 21.28471084 -15.87188462 24.35195073 -26 26.25 C-26.87011719 26.42273438 -27.74023438 26.59546875 -28.63671875 26.7734375 C-30.7558002 27.19259647 -32.87763855 27.59777827 -35 28 C-35 27.34 -35 26.68 -35 26 C-31.27034861 23.96564469 -29.33094958 23 -25 23 C-20.72834956 21.37147046 -20.72834956 21.37147046 -18 18 C-16.10419631 17.06082118 -14.18285225 16.17285496 -12.25 15.3125 C-6.64213885 12.57858434 -3.90374309 10.50709896 -1 5 C-0.14147224 2.23570364 -0.14147224 2.23570364 0 0 Z " fill="#DDC254" transform="translate(657,390)"/>
<path d="M0 0 C2.625 0.25 2.625 0.25 4.3125 1.3125 C5.625 3.25 5.625 3.25 6.29296875 6.5 C7.98516509 11.26395449 10.34269014 13.1693536 14.25 16.1875 C14.86101563 16.68056641 15.47203125 17.17363281 16.1015625 17.68164062 C17.59778903 18.88563541 19.1098585 20.06989683 20.625 21.25 C20.295 22.24 19.965 23.23 19.625 24.25 C15.78633821 22.69688626 13.59516038 20.26491392 10.8125 17.25 C6.76129374 13.08509667 4.29476385 11.19496064 -1.375 10.25 C-3.375 8.25 -3.375 8.25 -3.5625 4.6875 C-3.32591434 0.35009625 -3.32591434 0.35009625 0 0 Z " fill="#E6CE5F" transform="translate(545.375,397.75)"/>
<path d="M0 0 C2.5 0.1875 2.5 0.1875 5 1 C7.67927341 5.01891012 7.15601248 7.24161923 7 12 C6.01 12 5.02 12 4 12 C3.67 12.66 3.34 13.32 3 14 C-1.88241881 8.87346025 -1.88241881 8.87346025 -2.4375 4.75 C-2 2 -2 2 0 0 Z " fill="#EBD56D" transform="translate(616,352)"/>
<path d="M0 0 C2.9375 0.25 2.9375 0.25 6 1 C8.30019361 4.45029042 8.43132515 5.94554358 8 10 C7.01 10.66 6.02 11.32 5 12 C0.125 9.125 0.125 9.125 -1 8 C-1.125 4.5 -1.125 4.5 -1 1 C-0.67 0.67 -0.34 0.34 0 0 Z " fill="#E1C559" transform="translate(566,375)"/>
<path d="M0 0 C2.76384076 0.21260314 4.52393621 0.67168014 6.8125 2.25 C8.39364795 4.58011277 8.22337696 6.24501755 8 9 C5.36 9.33 2.72 9.66 0 10 C-2.14915785 6.77626323 -2.38286803 5.73296326 -2 2 C-1.34 1.34 -0.68 0.68 0 0 Z " fill="#E6CF66" transform="translate(649,350)"/>
<path d="M0 0 C9.68762264 0.81085828 19.34129307 1.90555906 29 3 C29.33 3.99 29.66 4.98 30 6 C19.63282798 5.63994253 10.0421956 4.77688539 0 2 C0 1.34 0 0.68 0 0 Z " fill="#BEAA4E" transform="translate(562,933)"/>
<path d="M0 0 C0.33 0 0.66 0 1 0 C1.45790104 8.73403831 1.45790104 8.73403831 -0.0625 12.9375 C-2.18713421 15.19920739 -4.19387403 16.17458112 -7.08984375 17.23828125 C-9.14758529 18.05885303 -10.92443989 19.09509058 -12.8125 20.25 C-13.864375 20.8275 -14.91625 21.405 -16 22 C-16.66 21.67 -17.32 21.34 -18 21 C-14.53733737 17.93728016 -11.0951858 15.01188879 -7.25 12.4375 C-3.31918751 9.67888047 -1.4617216 6.88886108 -0.3125 2.1875 C-0.209375 1.465625 -0.10625 0.74375 0 0 Z " fill="#E4C755" transform="translate(657,390)"/>
<path d="M0 0 C0 0.66 0 1.32 0 2 C-2.97573732 2.84761592 -5.95462284 3.67820957 -8.9375 4.5 C-10.18370117 4.85771484 -10.18370117 4.85771484 -11.45507812 5.22265625 C-17.14690943 6.7729605 -22.10194032 7.23806497 -28 7 C-27.67 6.34 -27.34 5.68 -27 5 C-24.49597632 4.23686897 -22.04563094 3.58747524 -19.5 3 C-18.77474121 2.82702393 -18.04948242 2.65404785 -17.30224609 2.47583008 C-15.85960689 2.13330401 -14.41609215 1.79444223 -12.97167969 1.45947266 C-11.31398633 1.07317017 -9.66036254 0.66946282 -8.0078125 0.26171875 C-2.25110619 -1.1255531 -2.25110619 -1.1255531 0 0 Z " fill="#E2CF6D" transform="translate(669,929)"/>
<path d="M0 0 C5.19210472 3.80304814 10.15609762 7.76158542 15 12 C14.67 12.99 14.34 13.98 14 15 C9.92623969 13.38989473 7.23492931 10.46177729 4.25 7.375 C3.74339844 6.859375 3.23679687 6.34375 2.71484375 5.8125 C1.47196098 4.54616661 0.23534724 3.2736856 -1 2 C-0.67 1.34 -0.34 0.68 0 0 Z " fill="#ECD872" transform="translate(551,407)"/>
<path d="M0 0 C1.7325 0.1546875 1.7325 0.1546875 3.5 0.3125 C4.16 1.3025 4.82 2.2925 5.5 3.3125 C-1.25 6.3125 -1.25 6.3125 -3.5 6.3125 C-4.16 7.6325 -4.82 8.9525 -5.5 10.3125 C-5.6953125 4.2578125 -5.6953125 4.2578125 -5.5 2.3125 C-3.5 0.3125 -3.5 0.3125 0 0 Z " fill="#D5B34A" transform="translate(582.5,340.6875)"/>
<path d="M0 0 C0.33 0.66 0.66 1.32 1 2 C-1.74828288 2.41704293 -4.49635754 2.809154 -7.25 3.1875 C-8.02730469 3.30802734 -8.80460938 3.42855469 -9.60546875 3.55273438 C-15.42997175 4.32435657 -15.42997175 4.32435657 -18.546875 2.55078125 C-19.02640625 2.03902344 -19.5059375 1.52726563 -20 1 C-17.23001178 0.6376556 -14.45937619 0.28482483 -11.6875 -0.0625 C-10.90181641 -0.16626953 -10.11613281 -0.27003906 -9.30664062 -0.37695312 C-8.54931641 -0.47041016 -7.79199219 -0.56386719 -7.01171875 -0.66015625 C-6.31522217 -0.74918213 -5.61872559 -0.83820801 -4.90112305 -0.92993164 C-3 -1 -3 -1 0 0 Z " fill="#CDBB5D" transform="translate(642,935)"/>
<path d="M0 0 C0.33 0 0.66 0 1 0 C1.3125 2.8125 1.3125 2.8125 1 6 C-1.8230034 8.49088536 -3.55297679 8.9746968 -7.3125 9.1875 C-8.6428125 9.0946875 -8.6428125 9.0946875 -10 9 C-9 6 -9 6 -7.1875 4.90234375 C-6.465625 4.58394531 -5.74375 4.26554687 -5 3.9375 C-1.8485304 2.67769923 -1.8485304 2.67769923 0 0 Z " fill="#F0DA68" transform="translate(590,347)"/>
<path d="M0 0 C0.99 0.33 1.98 0.66 3 1 C-2.61192685 5.91043599 -8.50432952 9.25043295 -16 10 C-13.88711957 7.69026736 -11.95489794 6.32135312 -9.125 5 C-6.66753977 3.83214275 -4.48597836 2.66874161 -2.1875 1.1875 C-1.465625 0.795625 -0.74375 0.40375 0 0 Z " fill="#CBAD49" transform="translate(651,405)"/>
<path d="M0 0 C1.72945653 0.14235457 3.45855654 0.28904382 5.1875 0.4375 C6.63189453 0.55931641 6.63189453 0.55931641 8.10546875 0.68359375 C10.78649602 0.97666151 13.3662986 1.42703754 16 2 C16 2.66 16 3.32 16 4 C10.22192976 4.2358396 5.48675196 3.86783046 0 2 C0 1.34 0 0.68 0 0 Z " fill="#DAC054" transform="translate(562,933)"/>
<path d="M0 0 C0.66 0.99 1.32 1.98 2 3 C1.41992188 3.65355469 1.41992188 3.65355469 0.828125 4.3203125 C-2.43984501 8.05744652 -5.34140589 11.8076016 -8 16 C-8.33 15.34 -8.66 14.68 -9 14 C-7.63671875 11.25 -7.63671875 11.25 -5.6875 8 C-4.73423828 6.39125 -4.73423828 6.39125 -3.76171875 4.75 C-2 2 -2 2 0 0 Z " fill="#A27F34" transform="translate(576,442)"/>
<path d="M0 0 C0.680625 0.309375 1.36125 0.61875 2.0625 0.9375 C-3.02840909 6.21022727 -3.02840909 6.21022727 -5.9375 7.9375 C-8.0625 7.51171875 -8.0625 7.51171875 -9.9375 6.9375 C-3.86310175 -0.08219365 -3.86310175 -0.08219365 0 0 Z " fill="#DCBF52" transform="translate(590.9375,430.0625)"/>
<path d="M0 0 C-2.35468455 2.72647685 -4.5408417 3.98756342 -8 5 C-10.3125 4.625 -10.3125 4.625 -12 4 C-8.66437635 0.13769893 -4.98576775 -1.84658065 0 0 Z " fill="#EFD866" transform="translate(590,345)"/>
<path d="M0 0 C0.33 0 0.66 0 1 0 C0.38461538 6.52307692 0.38461538 6.52307692 -1.5625 8.9375 C-2.036875 9.288125 -2.51125 9.63875 -3 10 C-4.98 9.34 -6.96 8.68 -9 8 C-6.06279492 6.47700477 -3.0831351 5.19899698 0 4 C0 2.68 0 1.36 0 0 Z " fill="#AD8938" transform="translate(591,349)"/>
<path d="M0 0 C0.33 0 0.66 0 1 0 C1.35042185 3.40038985 1.5412406 6.6145931 1 10 C-2 12.625 -2 12.625 -5 14 C-5.66 13.67 -6.32 13.34 -7 13 C-6.57847656 12.48050781 -6.15695312 11.96101563 -5.72265625 11.42578125 C-1.56571021 6.29853692 -1.56571021 6.29853692 0 0 Z " fill="#EED764" transform="translate(657,390)"/>
<path d="M0 0 C0.33 0 0.66 0 1 0 C1.625 2.875 1.625 2.875 2 6 C0 8 0 8 -2.625 8.125 C-3.40875 8.08375 -4.1925 8.0425 -5 8 C-5.33 7.34 -5.66 6.68 -6 6 C-5.195625 5.38125 -4.39125 4.7625 -3.5625 4.125 C-0.96125481 2.25835959 -0.96125481 2.25835959 0 0 Z " fill="#CDB150" transform="translate(550,401)"/>
<path d="M0 0 C0 1.65 0 3.3 0 5 C-0.99 5 -1.98 5 -3 5 C-3.33 5.66 -3.66 6.32 -4 7 C-4.99 5.35 -5.98 3.7 -7 2 C-4 0 -4 0 0 0 Z " fill="#D1B44F" transform="translate(623,359)"/>
<path d="M0 0 C1.65 0.99 3.3 1.98 5 3 C3.625 5 3.625 5 2 7 C1.34 7 0.68 7 0 7 C-0.66 5.68 -1.32 4.36 -2 3 C-1.34 2.01 -0.68 1.02 0 0 Z " fill="#E1C656" transform="translate(566,419)"/>
<path d="M0 0 C2.9375 0.375 2.9375 0.375 6 1 C6.33 1.66 6.66 2.32 7 3 C4.36 3.33 1.72 3.66 -1 4 C-0.67 2.68 -0.34 1.36 0 0 Z " fill="#B7923A" transform="translate(566,375)"/>
<path d="M0 0 C2.4375 0.375 2.4375 0.375 5 1 C5.33 1.66 5.66 2.32 6 3 C3.36 3.33 0.72 3.66 -2 4 C-1.34 2.68 -0.68 1.36 0 0 Z " fill="#B18D39" transform="translate(616,352)"/>
<path d="M0 0 C2.625 0.375 2.625 0.375 5 1 C1.25 4 1.25 4 -1 4 C-1.33 4.99 -1.66 5.98 -2 7 C-2.125 4.625 -2.125 4.625 -2 2 C-1.34 1.34 -0.68 0.68 0 0 Z " fill="#B18C38" transform="translate(649,350)"/>
<path d="M0 0 C2.125 0.375 2.125 0.375 4 1 C2.625 2.5 2.625 2.5 1 4 C0.34 4 -0.32 4 -1 4 C-1 4.66 -1 5.32 -1 6 C-1.66 6 -2.32 6 -3 6 C-2.42655063 3.13275314 -2.1385485 2.1385485 0 0 Z " fill="#C3A344" transform="translate(580,438)"/>
<path d="M0 0 C0 0.99 0 1.98 0 3 C-0.66 3 -1.32 3 -2 3 C-2.33 3.99 -2.66 4.98 -3 6 C-3.99 6 -4.98 6 -6 6 C-5.8125 4.125 -5.8125 4.125 -5 2 C-2.4375 0.75 -2.4375 0.75 0 0 Z " fill="#F3E07B" transform="translate(549,401)"/>
<path d="M0 0 C1.98 0 3.96 0 6 0 C4.68 1.65 3.36 3.3 2 5 C1.01 4.67 0.02 4.34 -1 4 C-0.67 2.68 -0.34 1.36 0 0 Z " fill="#F3DF78" transform="translate(567,380)"/>
<path d="M0 0 C0 0.66 0 1.32 0 2 C-3.71973879 4.84450614 -6.37390802 5.3227506 -11 5 C-3.5 0 -3.5 0 0 0 Z " fill="#DCBE50" transform="translate(591,351)"/>
<path d="M0 0 C0.99 0.33 1.98 0.66 3 1 C4.1875 3.5625 4.1875 3.5625 5 6 C4.01 6.33 3.02 6.66 2 7 C0.5393715 4.35261084 0 3.10551666 0 0 Z " fill="#BF9D41" transform="translate(588,358)"/>
<path d="M0 0 C2.31 0.33 4.62 0.66 7 1 C6.01 1.495 6.01 1.495 5 2 C5 2.66 5 3.32 5 4 C2.69 3.67 0.38 3.34 -2 3 C-1.34 2.01 -0.68 1.02 0 0 Z " fill="#B6A049" transform="translate(557,931)"/>
<path d="M0 0 C2.3431213 0.25561323 4.67843403 0.59270772 7 1 C7.33 1.66 7.66 2.32 8 3 C5.69 3 3.38 3 1 3 C0.67 2.01 0.34 1.02 0 0 Z " fill="#D7BC51" transform="translate(550,930)"/>
<path d="M0 0 C1.65 0 3.3 0 5 0 C5.33 0.66 5.66 1.32 6 2 C3.69 2.66 1.38 3.32 -1 4 C-0.67 2.68 -0.34 1.36 0 0 Z " fill="#C49B3C" transform="translate(543,398)"/>
<path d="M0 0 C2.31 0 4.62 0 7 0 C5.68 0.33 4.36 0.66 3 1 C3 1.66 3 2.32 3 3 C1.35 3.33 -0.3 3.66 -2 4 C-1.34 2.68 -0.68 1.36 0 0 Z " fill="#AC8231" transform="translate(579,341)"/>
</svg>
